<svg id="Icon_awesome-instagram" data-name="Icon awesome-instagram" xmlns="http://www.w3.org/2000/svg" width="44.412" height="44.402" viewBox="0 0 44.412 44.402">
  <path id="Icon_awesome-instagram-2" data-name="Icon awesome-instagram" d="M22.206,13.055A11.384,11.384,0,1,0,33.59,24.439,11.366,11.366,0,0,0,22.206,13.055Zm0,18.785a7.4,7.4,0,1,1,7.4-7.4A7.415,7.415,0,0,1,22.206,31.84ZM36.711,12.589a2.655,2.655,0,1,1-2.655-2.655A2.649,2.649,0,0,1,36.711,12.589Zm7.54,2.695c-.168-3.557-.981-6.708-3.587-9.3s-5.747-3.408-9.3-3.587c-3.666-.208-14.654-.208-18.32,0-3.547.168-6.7.981-9.3,3.577S.329,11.717.151,15.274c-.208,3.666-.208,14.654,0,18.32.168,3.557.981,6.708,3.587,9.3s5.747,3.408,9.3,3.587c3.666.208,14.654.208,18.32,0,3.557-.168,6.708-.981,9.3-3.587s3.408-5.747,3.587-9.3c.208-3.666.208-14.644,0-18.31ZM39.515,37.527a7.493,7.493,0,0,1-4.221,4.221c-2.923,1.159-9.858.892-13.088.892S12.03,42.9,9.117,41.748A7.493,7.493,0,0,1,4.9,37.527C3.737,34.6,4,27.669,4,24.439S3.747,14.263,4.9,11.35A7.493,7.493,0,0,1,9.117,7.13c2.923-1.159,9.858-.892,13.088-.892s10.175-.258,13.088.892a7.493,7.493,0,0,1,4.221,4.221c1.159,2.923.892,9.858.892,13.088S40.674,34.614,39.515,37.527Z" transform="translate(0.005 -2.238)" fill="#e3602f"/>
</svg>
