<svg id="Icon_awesome-instagram" data-name="Icon awesome-instagram" xmlns="http://www.w3.org/2000/svg" width="34.978" height="34.97" viewBox="0 0 34.978 34.97">
  <path id="Icon_awesome-instagram-2" data-name="Icon awesome-instagram" d="M17.487,10.757a8.966,8.966,0,1,0,8.966,8.966A8.952,8.952,0,0,0,17.487,10.757Zm0,14.795a5.829,5.829,0,1,1,5.829-5.829A5.84,5.84,0,0,1,17.487,25.552ZM28.911,10.39A2.091,2.091,0,1,1,26.82,8.3,2.086,2.086,0,0,1,28.911,10.39Zm5.938,2.122c-.133-2.8-.773-5.283-2.825-7.327S27.5,2.5,24.7,2.361C21.81,2.2,13.157,2.2,10.27,2.361c-2.794.133-5.275.773-7.327,2.817S.258,9.7.118,12.5c-.164,2.887-.164,11.541,0,14.428.133,2.8.773,5.283,2.825,7.327s4.526,2.684,7.327,2.825c2.887.164,11.541.164,14.428,0,2.8-.133,5.283-.773,7.327-2.825s2.684-4.526,2.825-7.327c.164-2.887.164-11.533,0-14.42ZM31.12,30.031A5.9,5.9,0,0,1,27.8,33.355c-2.3.913-7.764.7-10.308.7s-8.014.2-10.308-.7a5.9,5.9,0,0,1-3.324-3.324c-.913-2.3-.7-7.764-.7-10.308s-.2-8.014.7-10.308A5.9,5.9,0,0,1,7.179,6.091c2.3-.913,7.764-.7,10.308-.7s8.014-.2,10.308.7A5.9,5.9,0,0,1,31.12,9.415c.913,2.3.7,7.764.7,10.308S32.033,27.736,31.12,30.031Z" transform="translate(0.005 -2.238)" fill="#fff"/>
</svg>
