<svg id="Public-Health-Wales-Logo" xmlns="http://www.w3.org/2000/svg" width="384.641" height="110.264" viewBox="0 0 384.641 110.264">
  <rect id="Rectangle_177" data-name="Rectangle 177" width="1.933" height="13.49" transform="translate(224.872 13.472)" fill="#fff"/>
  <path id="Path_230" data-name="Path 230" d="M-291.886,80.58a7.561,7.561,0,0,1-3.113.637c-3.5,0-5.1-2.125-5.1-5.334,0-2.919,1.837-4.986,4.619-4.986,3.286,0,4.35,2.4,4.35,5.566h-7.036a3.226,3.226,0,0,0,3.247,3.286,5.828,5.828,0,0,0,3.035-.986Zm-1.18-5.47a2.488,2.488,0,0,0-2.455-2.743,2.727,2.727,0,0,0-2.647,2.743Z" transform="translate(529.515 -54.023)" fill="#fff"/>
  <path id="Path_231" data-name="Path 231" d="M-287.29,72.789a5.281,5.281,0,0,0-1.972-.423c-2.029,0-3.168,1.817-3.168,3.69,0,1.759.945,3.692,3.284,3.692a3.807,3.807,0,0,0,1.951-.561l.137,1.625a5.547,5.547,0,0,1-2.28.4,4.984,4.984,0,0,1-5.025-5.16,4.867,4.867,0,0,1,5.025-5.16,6.763,6.763,0,0,1,2.2.388Z" transform="translate(534.37 -54.023)" fill="#fff"/>
  <path id="Path_232" data-name="Path 232" d="M-289.275,68.51h1.817v6.05h.039a3.611,3.611,0,0,1,3.168-1.643c2.553,0,3.692,1.584,3.692,4.233v5.856h-1.815V77.9c0-2.3-.5-3.421-2.088-3.517-2.07,0-3,1.662-3,4.058v4.562h-1.817Z" transform="translate(538.676 -56.043)" fill="#fff"/>
  <path id="Path_233" data-name="Path 233" d="M-282.966,83.546a2.765,2.765,0,0,0,.851.155c1.623,0,2.164-2.243,2.164-2.437a5.563,5.563,0,0,0-.347-1.043l-3.345-9.2h1.992L-279,79.178h.039l2.706-8.156h1.835l-3.633,10.069c-.676,1.894-1.392,4.078-3.788,4.078a6.022,6.022,0,0,1-1.237-.135Z" transform="translate(543.441 -53.917)" fill="#fff"/>
  <path id="Path_234" data-name="Path 234" d="M-270.365,81.613h-.039a3.958,3.958,0,0,1-3.364,1.625c-2.976,0-4.231-2.649-4.231-5.335,0-2.647,1.39-4.986,4.252-4.986a3.517,3.517,0,0,1,3.266,1.586h.039V68.509h1.817v14.5h-1.739Zm-2.976.155c2.047,0,2.9-2.029,2.9-3.672,0-1.837-.947-3.711-2.919-3.711s-2.743,1.855-2.7,3.652c-.039,1.547.772,3.731,2.725,3.731" transform="translate(548.217 -56.043)" fill="#fff"/>
  <path id="Path_235" data-name="Path 235" d="M-258.607,71.383a5.431,5.431,0,0,0-2.784-.753,5.007,5.007,0,0,0-5.178,5.276,5.03,5.03,0,0,0,5.082,5.276,6.635,6.635,0,0,0,2.937-.657l.116,1.874a8.45,8.45,0,0,1-3.074.484c-4.27,0-7.111-2.745-7.111-7.036,0-4.156,3.015-6.919,7.132-6.919a7.461,7.461,0,0,1,3.035.58Z" transform="translate(556.154 -55.689)" fill="#fff"/>
  <path id="Path_236" data-name="Path 236" d="M-262.026,83.546a2.765,2.765,0,0,0,.851.155c1.623,0,2.164-2.243,2.164-2.437a5.563,5.563,0,0,0-.347-1.043l-3.345-9.2h1.992l2.647,8.156h.039l2.706-8.156h1.835l-3.633,10.069c-.676,1.894-1.392,4.078-3.788,4.078a6.021,6.021,0,0,1-1.237-.135Z" transform="translate(561.159 -53.917)" fill="#fff"/>
  <path id="Path_237" data-name="Path 237" d="M-256.705,68.51h1.817v6.05h.039a3.614,3.614,0,0,1,3.17-1.643c2.551,0,3.69,1.584,3.69,4.233v5.856h-1.817V77.9c0-2.3-.5-3.421-2.086-3.517-2.068,0-3,1.662-3,4.058v4.562h-1.817Z" transform="translate(566.235 -56.043)" fill="#fff"/>
  <path id="Path_238" data-name="Path 238" d="M-245.639,70.9a4.863,4.863,0,0,1,5.007,5.162,4.982,4.982,0,0,1-5.007,5.16,4.986,4.986,0,0,1-5.025-5.16,4.867,4.867,0,0,1,5.025-5.162m0,8.852c2.125,0,3.074-1.933,3.074-3.69,0-1.876-1.141-3.692-3.074-3.692-1.951,0-3.092,1.817-3.092,3.692,0,1.758.947,3.69,3.092,3.69" transform="translate(571.346 -54.024)" fill="#fff"/>
  <path id="Path_239" data-name="Path 239" d="M-236.053,80.58a7.546,7.546,0,0,1-3.113.637c-3.5,0-5.1-2.125-5.1-5.334,0-2.919,1.837-4.986,4.619-4.986,3.286,0,4.35,2.4,4.35,5.566h-7.036a3.226,3.226,0,0,0,3.247,3.286,5.821,5.821,0,0,0,3.033-.986Zm-1.178-5.47a2.488,2.488,0,0,0-2.455-2.743,2.727,2.727,0,0,0-2.647,2.743Z" transform="translate(576.759 -54.023)" fill="#fff"/>
  <path id="Path_240" data-name="Path 240" d="M-230.812,81.613h-.039a3.952,3.952,0,0,1-3.362,1.625c-2.976,0-4.233-2.649-4.233-5.335,0-2.647,1.392-4.986,4.252-4.986a3.515,3.515,0,0,1,3.266,1.586h.041V68.509h1.817v14.5h-1.741Zm-2.976.155c2.049,0,2.9-2.029,2.9-3.672,0-1.837-.949-3.711-2.919-3.711s-2.745,1.855-2.706,3.652c-.039,1.547.774,3.731,2.725,3.731" transform="translate(581.685 -56.043)" fill="#fff"/>
  <path id="Path_241" data-name="Path 241" d="M-224.415,81.613h-.039a3.958,3.958,0,0,1-3.364,1.625c-2.976,0-4.231-2.649-4.231-5.335,0-2.647,1.392-4.986,4.252-4.986a3.517,3.517,0,0,1,3.266,1.586h.039V68.509h1.817v14.5h-1.739Zm-2.976.155c2.047,0,2.9-2.029,2.9-3.672,0-1.837-.947-3.711-2.919-3.711s-2.743,1.855-2.7,3.652c-.039,1.547.772,3.731,2.725,3.731" transform="translate(587.098 -56.043)" fill="#fff"/>
  <path id="Path_242" data-name="Path 242" d="M-216.58,80.879h-1.759V79.313h-.039a3.544,3.544,0,0,1-3.227,1.8c-2.551,0-3.69-1.586-3.69-4.233V71.022h1.815v5.1c0,2.3.5,3.421,2.088,3.517,2.068,0,3-1.662,3-4.06v-4.56h1.817Z" transform="translate(592.812 -53.917)" fill="#fff"/>
  <path id="Path_243" data-name="Path 243" d="M-219.227,79.052a4.854,4.854,0,0,0,2.262.7c.831,0,1.855-.349,1.855-1.41,0-1.8-4.27-1.643-4.27-4.407,0-2.049,1.525-3.035,3.478-3.035a7.519,7.519,0,0,1,2.26.388l-.153,1.584a5.31,5.31,0,0,0-1.914-.5c-.927,0-1.739.386-1.739,1.2,0,2.01,4.272,1.431,4.272,4.58,0,2.106-1.682,3.074-3.439,3.074a5.682,5.682,0,0,1-2.706-.541Z" transform="translate(597.818 -54.024)" fill="#fff"/>
  <path id="Path_244" data-name="Path 244" d="M-292.926,83.947a5.431,5.431,0,0,0-2.784-.753,5.007,5.007,0,0,0-5.178,5.276,5.03,5.03,0,0,0,5.082,5.276,6.635,6.635,0,0,0,2.937-.657l.116,1.874a8.442,8.442,0,0,1-3.072.484c-4.272,0-7.113-2.745-7.113-7.036,0-4.156,3.015-6.919,7.132-6.919a7.46,7.46,0,0,1,3.035.58Z" transform="translate(527.115 -45.058)" fill="#fff"/>
  <path id="Path_245" data-name="Path 245" d="M-296.346,96.11a2.776,2.776,0,0,0,.851.155c1.623,0,2.164-2.243,2.164-2.437a5.559,5.559,0,0,0-.347-1.043l-3.343-9.2h1.99l2.647,8.156h.039l2.706-8.156h1.835l-3.633,10.069c-.676,1.894-1.392,4.078-3.788,4.078a6.021,6.021,0,0,1-1.237-.135Z" transform="translate(532.12 -43.286)" fill="#fff"/>
  <path id="Path_246" data-name="Path 246" d="M-291.035,83.693h1.7v1.429h.037a3.334,3.334,0,0,1,3.131-1.662,2.91,2.91,0,0,1,2.8,1.914,3.512,3.512,0,0,1,3.054-1.914c2.513,0,3.421,1.625,3.421,3.77v6.319H-278.7V87.673c0-1.217-.29-2.743-1.758-2.743-1.855,0-2.59,1.817-2.59,3.652v4.968h-1.817V87.673c0-1.217-.292-2.743-1.759-2.743-1.855,0-2.59,1.817-2.59,3.652v4.968h-1.817Z" transform="translate(537.186 -43.393)" fill="#fff"/>
  <path id="Path_247" data-name="Path 247" d="M-281.716,83.693h1.7v1.527h.037a3,3,0,0,1,2.57-1.759,5.088,5.088,0,0,1,1.2.137v1.623a2.692,2.692,0,0,0-1-.174c-1.623,0-2.686,1.545-2.686,4.019v4.484h-1.817Z" transform="translate(545.072 -43.393)" fill="#fff"/>
  <path id="Path_248" data-name="Path 248" d="M-268.927,93.443h-1.759V91.877h-.039a3.544,3.544,0,0,1-3.227,1.8c-2.551,0-3.69-1.586-3.69-4.233V83.586h1.815v5.1c0,2.3.5,3.421,2.088,3.517,2.068,0,3-1.662,3-4.06v-4.56h1.817Z" transform="translate(548.518 -43.286)" fill="#fff"/>
  <path id="Path_249" data-name="Path 249" d="M-302.624,97.7h3.537c2.764,0,5.064.966,5.064,4.039,0,2.994-2.339,4.058-4.774,4.058h-1.894v5.393h-1.933Zm1.933,6.4h1.913a2.429,2.429,0,0,0,2.706-2.376c0-1.7-1.778-2.321-2.976-2.321h-1.643Z" transform="translate(527.38 -31.344)" fill="#fff"/>
  <path id="Path_250" data-name="Path 250" d="M-288.118,109.525h-1.759v-1.566h-.039a3.542,3.542,0,0,1-3.227,1.8c-2.551,0-3.691-1.586-3.691-4.233V99.668h1.817v5.1c0,2.3.5,3.421,2.086,3.517,2.068,0,3-1.662,3-4.058V99.668h1.817Z" transform="translate(532.28 -29.678)" fill="#fff"/>
  <path id="Path_251" data-name="Path 251" d="M-290.437,97.155h1.817v5.991h.039a3.516,3.516,0,0,1,3.266-1.584c2.862,0,4.254,2.339,4.254,4.986,0,2.706-1.257,5.334-4.233,5.334a3.957,3.957,0,0,1-3.364-1.623h-.039v1.392h-1.739Zm4.735,5.876c-1.972,0-2.919,1.874-2.919,3.711,0,1.643.851,3.672,2.9,3.672,1.953,0,2.764-2.184,2.725-3.731.039-1.778-.733-3.652-2.7-3.652" transform="translate(537.692 -31.805)" fill="#fff"/>
  <rect id="Rectangle_178" data-name="Rectangle 178" width="1.817" height="14.496" transform="translate(259.295 65.351)" fill="#fff"/>
  <path id="Path_252" data-name="Path 252" d="M-279.018,99.412h-2.049V97.365h2.049Zm-1.935,2.2h1.817v9.857h-1.817Z" transform="translate(545.621 -31.627)" fill="#fff"/>
  <path id="Path_253" data-name="Path 253" d="M-271.586,101.436a5.265,5.265,0,0,0-1.972-.425c-2.029,0-3.17,1.817-3.17,3.69,0,1.759.947,3.692,3.286,3.692a3.788,3.788,0,0,0,1.951-.561l.135,1.625a5.542,5.542,0,0,1-2.28.4,4.985,4.985,0,0,1-5.025-5.16,4.867,4.867,0,0,1,5.025-5.16,6.766,6.766,0,0,1,2.2.388Z" transform="translate(547.658 -29.785)" fill="#fff"/>
  <path id="Path_254" data-name="Path 254" d="M-270.514,97.7h1.933v5.644h6.454V97.7h1.933v13.49h-1.933v-6.146h-6.454v6.146h-1.933Z" transform="translate(554.55 -31.344)" fill="#fff"/>
  <path id="Path_255" data-name="Path 255" d="M-255.245,109.225a7.554,7.554,0,0,1-3.113.637c-3.5,0-5.1-2.125-5.1-5.334,0-2.919,1.835-4.986,4.617-4.986,3.286,0,4.35,2.4,4.35,5.566h-7.036a3.225,3.225,0,0,0,3.247,3.284,5.829,5.829,0,0,0,3.035-.984Zm-1.18-5.47a2.486,2.486,0,0,0-2.454-2.743,2.729,2.729,0,0,0-2.649,2.743Z" transform="translate(560.521 -29.785)" fill="#fff"/>
  <path id="Path_256" data-name="Path 256" d="M-256.515,100.471a6.277,6.277,0,0,1,3.246-.929c2.823,0,3.962,1.392,3.962,4.078V107.7a15.541,15.541,0,0,0,.078,1.933h-1.7v-1.276h-.039a3.66,3.66,0,0,1-3.054,1.506c-2.125,0-3.615-.927-3.615-3.072,0-2.474,2.706-3.247,4.58-3.247.716,0,1.218,0,1.933.039,0-1.7-.618-2.57-2.435-2.57a4.636,4.636,0,0,0-2.86,1Zm5.391,4.464c-.386,0-.772-.039-1.159-.039-.986,0-3.421.155-3.421,1.894a1.738,1.738,0,0,0,1.837,1.6,2.487,2.487,0,0,0,2.743-2.59Z" transform="translate(565.446 -29.785)" fill="#fff"/>
  <rect id="Rectangle_179" data-name="Rectangle 179" width="1.817" height="14.496" transform="translate(319.445 65.351)" fill="#fff"/>
  <path id="Path_257" data-name="Path 257" d="M-242.664,102.448h-2.609v5.391a1.564,1.564,0,0,0,1.525,1.759,2.255,2.255,0,0,0,1.239-.347V110.8a5.688,5.688,0,0,1-1.547.271c-1.874,0-3.033-.89-3.033-2.86v-5.76h-2.225v-1.47h2.225V98.7l1.817-.58v2.86h2.609Z" transform="translate(572.489 -30.989)" fill="#fff"/>
  <path id="Path_258" data-name="Path 258" d="M-244.477,97.155h1.817v6.05h.039a3.611,3.611,0,0,1,3.168-1.643c2.553,0,3.692,1.584,3.692,4.233v5.856h-1.817v-5.1c0-2.3-.5-3.421-2.088-3.517-2.068,0-2.994,1.662-2.994,4.058v4.562h-1.817Z" transform="translate(576.582 -31.805)" fill="#fff"/>
  <path id="Path_259" data-name="Path 259" d="M-303.472,110.264h2.125l3.229,11.557h.037l2.88-11.557h2.745l2.919,11.557h.039l3.227-11.557h2.049l-4.156,13.49h-2.492l-2.939-11.79h-.039l-2.956,11.79h-2.59Z" transform="translate(526.663 -20.713)" fill="#fff"/>
  <path id="Path_260" data-name="Path 260" d="M-291.421,113.035a6.261,6.261,0,0,1,3.247-.929c2.821,0,3.962,1.39,3.962,4.078v4.076a16.118,16.118,0,0,0,.076,1.933h-1.7V120.92h-.041a3.652,3.652,0,0,1-3.054,1.5c-2.125,0-3.613-.925-3.613-3.072,0-2.472,2.7-3.246,4.58-3.246.714,0,1.218,0,1.933.039,0-1.7-.618-2.572-2.435-2.572a4.649,4.649,0,0,0-2.862,1Zm5.393,4.462c-.388,0-.774-.039-1.159-.039-.986,0-3.421.157-3.421,1.894a1.738,1.738,0,0,0,1.837,1.606,2.489,2.489,0,0,0,2.743-2.592Z" transform="translate(535.911 -19.154)" fill="#fff"/>
  <rect id="Rectangle_180" data-name="Rectangle 180" width="1.817" height="14.496" transform="translate(255.005 88.545)" fill="#fff"/>
  <path id="Path_261" data-name="Path 261" d="M-275.6,121.789a7.553,7.553,0,0,1-3.113.637c-3.5,0-5.1-2.125-5.1-5.334,0-2.919,1.835-4.986,4.617-4.986,3.286,0,4.35,2.4,4.35,5.566h-7.036a3.226,3.226,0,0,0,3.247,3.286,5.828,5.828,0,0,0,3.035-.986Zm-1.18-5.47a2.486,2.486,0,0,0-2.454-2.743,2.729,2.729,0,0,0-2.649,2.743Z" transform="translate(543.3 -19.154)" fill="#fff"/>
  <path id="Path_262" data-name="Path 262" d="M-277.96,120.26a4.833,4.833,0,0,0,2.262.7c.831,0,1.854-.347,1.854-1.41,0-1.8-4.27-1.643-4.27-4.407,0-2.049,1.527-3.033,3.48-3.033a7.586,7.586,0,0,1,2.26.386l-.155,1.584a5.311,5.311,0,0,0-1.913-.5c-.927,0-1.739.388-1.739,1.2,0,2.01,4.272,1.431,4.272,4.58,0,2.106-1.684,3.074-3.441,3.074a5.679,5.679,0,0,1-2.7-.541Z" transform="translate(548.119 -19.154)" fill="#fff"/>
  <line id="Line_18" data-name="Line 18" y2="91.368" transform="translate(211.302 12.114)" fill="#325083"/>
  <line id="Line_19" data-name="Line 19" y2="91.368" transform="translate(211.302 12.114)" fill="none" stroke="#fff" stroke-width="0.982"/>
  <path id="Path_263" data-name="Path 263" d="M-383.072,92.294c7.841-10.553,6.253-20.686-6.314-30.537-13.475,10.562-14.071,21.417-5.5,31.83,1.268,1.482,5.5,5.5,5.5,5.5s4.7-.089,11.847,2.749a42.574,42.574,0,0,0-7.911-9.713c-5.376-4.638-11.35-12.932-3.936-19.806,5,4.639,3.908,9.929,1.014,14.3,0,0,.33,1.06,3.907,4.381.519.48.923.932,1.394,1.3" transform="translate(444.51 -61.757)" fill="#fff"/>
  <path id="Path_264" data-name="Path 264" d="M-388.349,84.955A28.391,28.391,0,0,0-393.9,95.07a46.943,46.943,0,0,0-1.959,11.125c-3-.711-7.422-4.414-7.422-4.414A43.692,43.692,0,0,1-400.168,88.9a27.914,27.914,0,0,1,6.423-9.343Z" transform="translate(442.211 -46.699)" fill="#fff"/>
  <path id="Path_265" data-name="Path 265" d="M-393.832,90.739c-10.551-7.839-20.686-6.253-30.535,6.316,10.56,13.473,21.415,14.07,31.83,5.5,1.482-1.268,5.5-5.5,5.5-5.5s-.087-4.7,2.751-11.849A42.516,42.516,0,0,0-394,93.117c-4.639,5.376-12.932,11.35-19.807,3.938,4.641-5.007,9.93-3.908,14.3-1.015,0,0,1.056-.33,4.379-3.908.478-.517.932-.923,1.294-1.392" transform="translate(424.367 -41.916)" fill="#fff"/>
  <path id="Path_266" data-name="Path 266" d="M-401.169,92.307a28.388,28.388,0,0,0,10.115,5.551,47,47,0,0,0,11.125,1.957c-.711,3-4.412,7.422-4.412,7.422a43.737,43.737,0,0,1-12.884-3.111,27.909,27.909,0,0,1-9.345-6.423Z" transform="translate(439.425 -35.907)" fill="#fff"/>
  <path id="Path_267" data-name="Path 267" d="M-395.387,109.315c-7.839,10.549-6.251,20.686,6.316,30.537,13.473-10.562,14.071-21.417,5.5-31.83-1.268-1.482-5.5-5.5-5.5-5.5s-4.7.089-11.847-2.747a42.505,42.505,0,0,0,7.913,9.711c5.374,4.639,11.348,12.932,3.934,19.807-5.007-4.639-3.908-9.929-1.013-14.3,0,0-.331-1.056-3.908-4.379-.517-.478-.923-.932-1.394-1.294" transform="translate(444.209 -29.588)" fill="#fff"/>
  <path id="Path_268" data-name="Path 268" d="M-393.817,110.5a28.411,28.411,0,0,0,5.551-10.115,47,47,0,0,0,1.957-11.125c3,.711,7.422,4.412,7.422,4.412A43.739,43.739,0,0,1-382,106.552a27.928,27.928,0,0,1-6.423,9.347Z" transform="translate(450.217 -38.489)" fill="#fff"/>
  <path id="Path_269" data-name="Path 269" d="M-376.81,103.054c10.551,7.837,20.686,6.253,30.537-6.316-10.562-13.473-21.417-14.071-31.83-5.5-1.483,1.268-5.5,5.5-5.5,5.5s.089,4.7-2.749,11.849a42.532,42.532,0,0,0,9.713-7.914c4.637-5.372,12.932-11.348,19.807-3.934-4.641,5.007-9.93,3.908-14.3,1.014,0,0-1.056.33-4.381,3.908-.478.517-.931.923-1.294,1.394" transform="translate(456.534 -41.614)" fill="#fff"/>
  <path id="Path_270" data-name="Path 270" d="M-375.631,97.775a28.387,28.387,0,0,0-10.115-5.551,46.877,46.877,0,0,0-11.123-1.957c.707-3,4.412-7.422,4.412-7.422a43.67,43.67,0,0,1,12.884,3.111,27.914,27.914,0,0,1,9.343,6.423Z" transform="translate(447.635 -43.913)" fill="#fff"/>
  <path id="Path_271" data-name="Path 271" d="M-417.781,99.526a19.505,19.505,0,0,1,5.923-.919,19.685,19.685,0,0,1,2.439.148A36.966,36.966,0,0,1-387.334,76.7a19.576,19.576,0,0,1-.114-2.337,19.429,19.429,0,0,1,.943-6.031,44.632,44.632,0,0,0-31.276,31.194" transform="translate(429.94 -56.193)" fill="#fff"/>
  <path id="Path_272" data-name="Path 272" d="M-386.6,129.232a19.5,19.5,0,0,1-.918-5.922,19.681,19.681,0,0,1,.146-2.439,36.966,36.966,0,0,1-22.054-22.086,19.979,19.979,0,0,1-2.337.114,19.45,19.45,0,0,1-6.033-.945,44.637,44.637,0,0,0,31.2,31.278" transform="translate(429.93 -31.128)" fill="#fff"/>
  <path id="Path_273" data-name="Path 273" d="M-356.893,98.01a19.5,19.5,0,0,1-5.924.918,19.306,19.306,0,0,1-2.437-.148,36.975,36.975,0,0,1-22.084,22.056,19.988,19.988,0,0,1,.113,2.337,19.45,19.45,0,0,1-.943,6.033,44.631,44.631,0,0,0,31.276-31.2" transform="translate(454.996 -31.081)" fill="#fff"/>
  <path id="Path_274" data-name="Path 274" d="M-388.115,68.343a19.438,19.438,0,0,1,.919,5.922,19.7,19.7,0,0,1-.148,2.439,36.96,36.96,0,0,1,22.054,22.082,19.947,19.947,0,0,1,2.337-.111,19.5,19.5,0,0,1,6.033.942,44.635,44.635,0,0,0-31.2-31.274" transform="translate(455.042 -56.184)" fill="#fff"/>
  <path id="Path_275" data-name="Path 275" d="M-357.448,107.482V94.864h.642l18.587,19.872.264.227c.078-1.362.114-2.76.114-4.119V98.756l-.151-3.024-.037-.3a11.986,11.986,0,0,0,1.623.113,4.132,4.132,0,0,0,.945-.113c-.037.3-.037.6-.076.908l-.19,3.7-.34,8.952-.113,8.463.113,4.268h-.567c-.755-.906-1.51-1.813-2.3-2.681l-6.157-6.84-10.54-11.219-.076,3.552c-.039,1.889,0,3.74,0,5.59v3.022l.113,4.458.19,3.628a7.537,7.537,0,0,0-2.607,0c.15-1.662.264-3.325.3-4.986Z" transform="translate(480.513 -33.743)" fill="#fff"/>
  <path id="Path_276" data-name="Path 276" d="M-338.78,107.9l.115,8.2.151,4.082.074.831c-.567-.039-1.17-.188-1.735-.188-.681,0-1.324.15-2,.188.037-.266.037-.569.076-.831l.151-2.985.15-8.839V99.135l-.188-4.006c.642.041,1.285.151,1.927.151.567,0,1.17-.074,1.737-.111-.037.338-.037.678-.074,1.017l-.151,3.438-.19,6.574,4.874.114,10.8-.114V98.19l-.188-3.061c.641.041,1.285.151,1.926.151.6,0,1.172-.074,1.778-.111a9.472,9.472,0,0,0-.115,1.017L-320,108.5l.114,8.5.188,4c-.567-.039-1.132-.188-1.7-.188-.681,0-1.322.15-2,.188.037-.266.037-.569.076-.831l.19-3.892.113-8.387Z" transform="translate(493.911 -33.519)" fill="#fff"/>
  <path id="Path_277" data-name="Path 277" d="M-326.087,116.212c1.473,2.418,3.174,3.851,6.12,3.851a5.261,5.261,0,0,0,5.252-5.439c0-2.531-1.7-3.816-3.818-4.759a38.266,38.266,0,0,1-5.326-2.531,6.242,6.242,0,0,1-2.682-5.177c0-4.872,3.853-7.254,8.385-7.254a8.478,8.478,0,0,1,5.4,1.815,21.092,21.092,0,0,0-1.019,3.1h-.379a4.947,4.947,0,0,0-4.684-3.4,4.553,4.553,0,0,0-4.761,4.536,4.34,4.34,0,0,0,1.625,3.513,4.559,4.559,0,0,0,1.475.9c.452.229.943.454,1.433.644.567.225,1.135.45,1.7.716s1.211.491,1.739.794a8.052,8.052,0,0,1,2.38,1.625,6.228,6.228,0,0,1,1.551,4c0,5.4-4.2,8.537-9.332,8.537-1.852,0-4.876-.716-6.157-2.114a17.434,17.434,0,0,0,.718-3.362Z" transform="translate(506.601 -33.709)" fill="#fff"/>
  <path id="Path_278" data-name="Path 278" d="M-353.087,122.877a4.684,4.684,0,0,0-.842-.083,5.032,5.032,0,0,0-.86.083c-.942-3.637-2.066-7.224-3.173-10.828l-.116-.478c.447.033.892.081,1.34.081s.908-.048,1.355-.081c.661,2.777,1.42,5.52,2.182,8.263.942-2.76,2.016-5.47,2.858-8.263a5.018,5.018,0,0,0,.842.081,4.623,4.623,0,0,0,.811-.081c.746,2.793,1.82,5.487,2.629,8.263.877-2.727,1.752-5.47,2.446-8.263a5.631,5.631,0,0,0,.744.081,3.777,3.777,0,0,0,.742-.081v.133c-1.355,3.685-2.642,7.4-3.783,11.173a4.687,4.687,0,0,0-.844-.083,5.049,5.049,0,0,0-.86.083c-.726-2.727-1.667-5.389-2.627-8.034-.927,2.627-1.9,5.225-2.793,7.868Z" transform="translate(480.457 -19.606)" fill="#fff"/>
  <path id="Path_279" data-name="Path 279" d="M-343.2,118.541h3.024c-.462-1.289-.958-2.577-1.471-3.849-.53,1.222-1.041,2.444-1.5,3.7Zm-3.107,4.248,1.222-2.826c1.224-2.777,2.4-5.586,3.438-8.444a4.081,4.081,0,0,0,.628.079,4.052,4.052,0,0,0,.628-.079l.116.281q2.058,5.428,4.331,10.791l.083.183v.15c-.465-.033-.945-.083-1.4-.083a12.967,12.967,0,0,0-1.388.083c-.349-1.141-.7-2.263-1.141-3.373-.613-.017-1.206-.048-1.819-.048-.679,0-1.338.015-2.016.031l-.083.233c-.362,1.039-.775,2.066-1.041,3.157a3.977,3.977,0,0,0-.777-.083,4.1,4.1,0,0,0-.775.083Z" transform="translate(490.419 -19.651)" fill="#fff"/>
  <path id="Path_280" data-name="Path 280" d="M-336.9,111.57c.447.033.892.083,1.338.083s.908-.05,1.355-.083c-.033.991-.116,1.968-.129,2.959-.018.646-.018,1.289-.018,1.933v3.126c0,.692.031,1.388.031,2.081l.893-.033c.975-.017,1.933-.1,2.893-.181a3.431,3.431,0,0,0-.067.711,3.431,3.431,0,0,0,.067.711l-2.791-.1c-.762-.015-1.5.052-2.25.052-.462,0-.908.015-1.372.048.116-1.785.149-3.572.149-5.356,0-.661.017-1.322.017-1.981,0-1.226-.066-2.431-.1-3.654Z" transform="translate(498.334 -19.607)" fill="#fff"/>
  <path id="Path_281" data-name="Path 281" d="M-329.57,111.57c.877.017,1.752.1,2.629.1,1.241,0,2.494-.066,3.735-.083a3.772,3.772,0,0,0-.033,1.224c.017.065.017.131.033.2a36.3,36.3,0,0,0-3.77-.2c-.015.578-.031,1.139-.031,1.719,0,.613-.015,1.222-.015,1.833l3.75-.131a6.188,6.188,0,0,0-.081.779,4.06,4.06,0,0,0,.081.626c-.975-.068-1.95-.116-2.941-.133-.264,0-.547-.017-.809-.017,0,.7-.018,1.4-.018,2.1s.018,1.388.018,2.081a37.227,37.227,0,0,0,3.816-.214,3.761,3.761,0,0,0-.033,1.222c.017.066.017.133.033.2-.99-.017-2-.1-2.991-.1-.646,0-1.305.052-1.951.052-.495,0-.975.015-1.471.048.033-.314.033-.628.05-.942.033-1.025.066-2.051.083-3.092,0-.825.017-1.669.017-2.511V114.4c0-.858-.067-1.752-.1-2.61Z" transform="translate(504.538 -19.607)" fill="#fff"/>
  <path id="Path_282" data-name="Path 282" d="M-316.813,113.879a1.96,1.96,0,0,0-1.9-1.4,1.682,1.682,0,0,0-1.322.447,1.489,1.489,0,0,0-.495,1.139c0,1.752,3.9,2.13,4.743,4.065a3.773,3.773,0,0,1,.281,1.471,3.834,3.834,0,0,1-.4,1.553,3.32,3.32,0,0,1-1.75,1.6,4.944,4.944,0,0,1-2.232.43,5.171,5.171,0,0,1-2.66-.694,15.416,15.416,0,0,0,.48-2.084h.312a2.2,2.2,0,0,0,2.282,1.769,1.715,1.715,0,0,0,1.933-1.669,1.6,1.6,0,0,0-.611-1.272A11.393,11.393,0,0,0-320,118.192a14.375,14.375,0,0,1-1.322-.809,2.908,2.908,0,0,1-1.139-2.481,3.056,3.056,0,0,1,1.255-2.61,3.661,3.661,0,0,1,2.561-.81,4.493,4.493,0,0,1,2.465.661c.05.05.1.066.146.116-.2.53-.362,1.074-.528,1.621Z" transform="translate(510.522 -19.683)" fill="#fff"/>
  <path id="Path_283" data-name="Path 283" d="M-347.932,95.095l-.364,1.4a7.252,7.252,0,0,1-3.273.709,9.6,9.6,0,0,1-2.164-.246,7.717,7.717,0,0,1-1.819-.812,5.637,5.637,0,0,1-1.189-1.172,5.262,5.262,0,0,1-1.043-3.273,5.763,5.763,0,0,1,1.9-4.693,7.1,7.1,0,0,1,4.678-1.521,7.64,7.64,0,0,1,3.369.794c-.148.561-.246,1.124-.378,1.686h-.233a3.424,3.424,0,0,0-2.741-1.453c-2.745,0-3.87,2.561-3.87,4.957a5.5,5.5,0,0,0,.977,3.354,3.753,3.753,0,0,0,2.974,1.4,4.715,4.715,0,0,0,2.959-1.222Z" transform="translate(480.707 -41.674)" fill="#fff"/>
  <path id="Path_284" data-name="Path 284" d="M-348.274,85.689a10.762,10.762,0,0,0,1.471-.1c.231.48.463.975.694,1.455.247.53.495,1.043.744,1.554.231.48.48.96.709,1.438a1.75,1.75,0,0,0,.33.545c0,.05.249-.314.266-.33.1-.164.2-.347.281-.513.347-.642.661-1.305.975-1.95.216-.447.414-.908.613-1.353.115-.284.231-.546.364-.829.066.017.131.017.2.033a3.707,3.707,0,0,0,1.353-.033c-1.156,2.167-2.394,4.165-3.436,6.282-.017.626-.033,1.272-.033,1.9,0,1.043.1,2.084.166,3.127-.463-.033-.942-.085-1.4-.085a12.538,12.538,0,0,0-1.4.085c.116-1.259.183-2.514.183-3.77.013-.314.013-.613.013-.925-1.239-2.132-2.328-4.364-3.569-6.613.5.033.991.083,1.488.083" transform="translate(487.494 -41.591)" fill="#fff"/>
  <path id="Path_285" data-name="Path 285" d="M-340.38,85.6c.216.017.447.083.663.083a4.453,4.453,0,0,0,.676-.083c1.207,2.646,2.513,5.225,3.818,7.818l.975-1.9q1.512-2.922,2.876-5.917c.066.017.116.017.183.033a3.352,3.352,0,0,0,1.222-.033c.282,2.581.6,5.156.908,7.735.116.958.266,1.918.4,2.876a4.326,4.326,0,0,1,.116.694c-.447-.033-.908-.081-1.355-.081s-.892.048-1.339.081c-.116-2.546-.447-5.073-.694-7.619-1.257,2.529-2.5,5.057-3.668,7.619a1.642,1.642,0,0,0-.63,0l-1.272-2.646c-.759-1.6-1.571-3.19-2.346-4.791-.116.975-.247,1.95-.347,2.922-.05.63-.116,1.242-.166,1.868-.033.546-.083,1.074-.116,1.621-.017.347-.033.678-.066,1.025a4.089,4.089,0,0,0-.775-.081,4.1,4.1,0,0,0-.761.081,3.078,3.078,0,0,1,.116-.611c.181-.827.3-1.669.447-2.513.181-1.074.312-2.149.463-3.223Z" transform="translate(493.993 -41.583)" fill="#fff"/>
  <path id="Path_286" data-name="Path 286" d="M-329.119,88.5c0,.43-.017.858-.017,1.289,0,.4,0,.792-.017,1.191,1.721.164,2.581-.661,2.581-2.363a3.469,3.469,0,0,0-.083-.825c-.3-1.374-1.338-1.193-2.465-1.259Zm.63,4.132c-.15-.281-.314-.58-.48-.842-.05-.066-.033-.083-.116-.1a.088.088,0,0,0-.083.1c0,.975.033,1.966.033,2.941a3.986,3.986,0,0,1,.017.445c.017.58.083,1.159.116,1.737-.445-.033-.892-.083-1.338-.083s-.892.05-1.338.083l.017-.316c.017-.362.033-.726.066-1.089.083-1.074.083-2.167.083-3.257,0-.991-.017-2-.017-2.993,0-1.222-.05-2.428-.116-3.652l1.139.033c.794.017,1.588-.05,2.382-.05a6.228,6.228,0,0,1,2.66.349,2.57,2.57,0,0,1,1.455,2.411,2.953,2.953,0,0,1-2.577,2.976c.908,1.586,1.931,3.107,2.924,4.645l.594.942c-.495-.033-1.008-.083-1.5-.083a14.783,14.783,0,0,0-1.484.083l-1.918-3.39Z" transform="translate(502.794 -41.591)" fill="#fff"/>
  <path id="Path_287" data-name="Path 287" d="M-314,88.02c-.017.53-.048,1.074-.048,1.621,0,.611-.033,1.222-.05,1.817-.033,1.885-.017,3.6-1.735,4.793a5.323,5.323,0,0,1-3.126.877c-2,0-4.163-.63-4.774-2.777a5.537,5.537,0,0,1-.149-.894,8.6,8.6,0,0,1-.033-1.139c-.017-.679-.033-1.355-.033-2.049,0-.678-.017-1.374-.017-2.066,0-.63-.017-1.274-.017-1.9,0-.233-.031-.462-.031-.694.463.033.906.083,1.37.083a9.29,9.29,0,0,0,1.338-.1c-.015.264-.048.545-.081.81-.083,1.305-.133,2.577-.133,3.868a21.529,21.529,0,0,0,.116,3.122,2.994,2.994,0,0,0,.877,1.9,2.624,2.624,0,0,0,1.883.711,2.763,2.763,0,0,0,2.941-2,12.947,12.947,0,0,0,.3-3.423c0-1.652-.017-3.321-.133-4.974a5.021,5.021,0,0,0,.842.083,4.667,4.667,0,0,0,.827-.083c-.081.794-.1,1.6-.133,2.413" transform="translate(509.279 -41.59)" fill="#fff"/>
  <path id="Path_288" data-name="Path 288" d="M-335.781,81.66l.114,8.2.151,4.08.078.831c-.57-.037-1.174-.186-1.739-.186-.679,0-1.324.15-2,.186.039-.264.039-.567.076-.831l.151-2.983.151-8.843V72.9l-.19-4.006c.644.039,1.285.151,1.927.151.567,0,1.17-.074,1.737-.113-.037.34-.037.679-.074,1.021l-.151,3.436-.19,6.574Z" transform="translate(496.448 -55.721)" fill="#fff"/>
  <path id="Path_289" data-name="Path 289" d="M-330.017,93.427c.454,1.534-7.787,2.092-10.82,2.092-9.877,0-17.682-5.062-17.682-13.6,0-8.009,7.806-13.6,17.682-13.6a29.349,29.349,0,0,1,10.311,1.85l-1.591,2.57a22.1,22.1,0,0,0-8.719-1.7c-7.758,0-13.25,4.833-13.25,10.878S-348.6,92.8-340.838,92.8a21.71,21.71,0,0,0,6.7-1.095l.517-.443V83.48l-.19-4.006c.642.039,1.892.151,2.537.151.565,0,1.171-.076,1.737-.113-.039.338-.039.679-.076,1.019l-.151,3.439Z" transform="translate(480.084 -56.205)" fill="#fff"/>
  <path id="Path_290" data-name="Path 290" d="M-305.955,93.427c.454,1.534-7.787,2.092-10.82,2.092-9.877,0-17.682-5.062-17.682-13.6,0-8.009,7.806-13.6,17.682-13.6a29.347,29.347,0,0,1,10.309,1.85l-1.591,2.57a22.082,22.082,0,0,0-8.718-1.7c-7.759,0-13.252,4.833-13.252,10.878S-324.535,92.8-316.776,92.8a21.72,21.72,0,0,0,6.7-1.095l.515-.443V83.48l-.188-4.006c.642.039,1.892.151,2.537.151.565,0,1.17-.076,1.735-.113-.037.338-.037.679-.076,1.019l-.151,3.439Z" transform="translate(500.444 -56.205)" fill="#fff"/>
</svg>
