<svg id="Icon_awesome-soundcloud" data-name="Icon awesome-soundcloud" xmlns="http://www.w3.org/2000/svg" width="62.41" height="27.104" viewBox="0 0 62.41 27.104">
  <path id="Icon_awesome-soundcloud-2" data-name="Icon awesome-soundcloud" d="M10.865,21.81l.566,6.34-.566,6.661a.461.461,0,0,1-.429.429.423.423,0,0,1-.41-.429L9.48,28.149l.546-6.34a.419.419,0,0,1,.41-.41.467.467,0,0,1,.429.41Zm2.087-4.447a.5.5,0,0,0-.488.488l-.488,10.3.488,6.661a.5.5,0,0,0,.488.488.477.477,0,0,0,.458-.488l.566-6.661-.566-10.3A.477.477,0,0,0,12.952,17.362Zm2.487-2.35a.539.539,0,0,0-.546.517l-.429,12.679.429,6.613a.539.539,0,0,0,.546.517.514.514,0,0,0,.517-.517l.517-6.613-.517-12.679A.514.514,0,0,0,15.439,15.012ZM.7,24.433c-.137,0-.215.107-.244.244L0,28.149l.458,3.414c.029.137.107.244.244.244s.215-.107.244-.244l.546-3.414L.946,24.677c-.029-.137-.107-.244-.244-.244ZM3,22.3a.241.241,0,0,0-.244.244l-.624,5.608.624,5.471A.25.25,0,0,0,3,33.894a.29.29,0,0,0,.273-.244l.7-5.5-.7-5.608A.29.29,0,0,0,3,22.3Zm2.468-1.112a.338.338,0,0,0-.322.322l-.566,6.642.566,6.418a.352.352,0,0,0,.322.3.3.3,0,0,0,.3-.3l.673-6.418-.673-6.642A.309.309,0,0,0,5.471,21.186Zm2.468-.215a.343.343,0,0,0-.351.351l-.566,6.827.566,6.613a.343.343,0,0,0,.351.351.388.388,0,0,0,.38-.351l.624-6.613-.624-6.827A.388.388,0,0,0,7.939,20.971ZM31.483,10.155a.762.762,0,0,0-.41-.137.9.9,0,0,0-.546.185,1,1,0,0,0-.322.653v.078l-.322,17.234.166,3.17.166,3.092a.891.891,0,0,0,.868.839.845.845,0,0,0,.839-.839l.38-6.261-.38-17.312a.939.939,0,0,0-.439-.7Zm-2.6,1.492a.857.857,0,0,0-.429-.137.828.828,0,0,0-.429.137.771.771,0,0,0-.351.653l-.029.166-.273,15.683s0,.029.3,6.4v.029a.735.735,0,0,0,.166.458.836.836,0,0,0,.624.3.791.791,0,0,0,.546-.244.672.672,0,0,0,.244-.546l.029-.653.3-5.715L29.259,12.3a.875.875,0,0,0-.38-.653ZM18.014,13.842a.592.592,0,0,0-.566.595l-.429,13.713.429,6.554a.58.58,0,0,0,1.161,0l.488-6.554-.488-13.713A.61.61,0,0,0,18.014,13.842Zm36.74,6.125a7.833,7.833,0,0,0-2.984.595A13.554,13.554,0,0,0,38.281,8.234a13.3,13.3,0,0,0-4.906.917c-.595.215-.761.429-.761.9V34.4a.919.919,0,0,0,.839.9H54.744a7.666,7.666,0,0,0,.01-15.332ZM25.816,14.085a.774.774,0,0,0-.761.761l-.322,13.332.322,6.4a.769.769,0,0,0,.761.731.724.724,0,0,0,.731-.731l.38-6.4-.38-13.332A.75.75,0,0,0,25.816,14.085Zm-5.228-.761a.662.662,0,0,0-.624.653l-.38,14.171.38,6.525a.639.639,0,0,0,1.278,0l.429-6.525-.429-14.171a.687.687,0,0,0-.653-.653Zm2.6.332a.668.668,0,0,0-.673.673l-.38,13.82.38,6.476a.687.687,0,0,0,.673.673.674.674,0,0,0,.673-.673l.41-6.476-.41-13.82a.662.662,0,0,0-.673-.673Z" transform="translate(0 -8.233)" fill="#fff"/>
</svg>
