<svg id="Icon_awesome-soundcloud" data-name="Icon awesome-soundcloud" xmlns="http://www.w3.org/2000/svg" width="79.244" height="34.415" viewBox="0 0 79.244 34.415">
  <path id="Icon_awesome-soundcloud-2" data-name="Icon awesome-soundcloud" d="M13.8,25.472l.718,8.049L13.8,41.979a.585.585,0,0,1-.545.545.537.537,0,0,1-.52-.545l-.693-8.458.693-8.049a.532.532,0,0,1,.52-.52A.593.593,0,0,1,13.8,25.472Zm2.65-5.647a.638.638,0,0,0-.619.619l-.619,13.077.619,8.458a.638.638,0,0,0,.619.619.606.606,0,0,0,.582-.619l.718-8.458-.718-13.077A.606.606,0,0,0,16.446,19.825ZM19.6,16.84a.685.685,0,0,0-.693.656l-.545,16.1.545,8.4a.685.685,0,0,0,.693.656.653.653,0,0,0,.656-.656l.656-8.4L20.26,17.5A.653.653,0,0,0,19.6,16.84ZM.892,28.8c-.173,0-.272.136-.31.31L0,33.521l.582,4.334c.037.173.136.31.31.31s.272-.136.31-.31l.693-4.334L1.2,29.113C1.164,28.939,1.065,28.8.892,28.8Zm2.923-2.712a.307.307,0,0,0-.31.31l-.793,7.121L3.5,40.469a.317.317,0,0,0,.31.347.368.368,0,0,0,.347-.31l.892-6.984L4.161,26.4a.368.368,0,0,0-.347-.31Zm3.133-1.412a.429.429,0,0,0-.409.409L5.82,33.521l.718,8.149a.446.446,0,0,0,.409.384.386.386,0,0,0,.384-.384l.854-8.149-.854-8.433A.392.392,0,0,0,6.947,24.679Zm3.133-.272a.436.436,0,0,0-.446.446l-.718,8.669.718,8.4a.436.436,0,0,0,.446.446.492.492,0,0,0,.483-.446l.793-8.4-.793-8.669A.492.492,0,0,0,10.08,24.407ZM39.975,10.673a.967.967,0,0,0-.52-.173,1.139,1.139,0,0,0-.693.235,1.269,1.269,0,0,0-.409.83v.1l-.409,21.882.211,4.025.211,3.926a1.132,1.132,0,0,0,1.1,1.065A1.073,1.073,0,0,0,40.532,41.5l.483-7.95-.483-21.981a1.193,1.193,0,0,0-.557-.892Zm-3.306,1.895a1.088,1.088,0,0,0-.545-.173,1.051,1.051,0,0,0-.545.173.978.978,0,0,0-.446.83l-.037.211-.347,19.913s0,.037.384,8.124v.037a.934.934,0,0,0,.211.582,1.062,1.062,0,0,0,.793.384,1,1,0,0,0,.693-.31.853.853,0,0,0,.31-.693l.037-.83.384-7.257L37.151,13.4a1.111,1.111,0,0,0-.483-.83Zm-13.8,2.786a.752.752,0,0,0-.718.755L21.61,33.521l.545,8.322a.737.737,0,0,0,1.474,0l.619-8.322L23.628,16.11A.775.775,0,0,0,22.873,15.354Zm46.65,7.777a9.946,9.946,0,0,0-3.789.755A17.21,17.21,0,0,0,48.606,8.234,16.887,16.887,0,0,0,42.377,9.4c-.755.272-.966.545-.966,1.139V41.459A1.166,1.166,0,0,0,42.476,42.6H69.51a9.734,9.734,0,0,0,.012-19.467ZM32.78,15.664a.983.983,0,0,0-.966.966l-.409,16.929.409,8.124a.976.976,0,0,0,.966.929.92.92,0,0,0,.929-.929l.483-8.124L33.709,16.63A.952.952,0,0,0,32.78,15.664ZM26.142,14.7a.84.84,0,0,0-.793.83l-.483,17.994.483,8.285a.811.811,0,0,0,1.622,0l.545-8.285-.545-17.994a.873.873,0,0,0-.83-.83Zm3.306.421a.848.848,0,0,0-.854.854l-.483,17.548.483,8.223a.872.872,0,0,0,.854.854.856.856,0,0,0,.854-.854l.52-8.223L30.3,15.973a.841.841,0,0,0-.854-.854Z" transform="translate(0 -8.233)" fill="#e3602f"/>
</svg>
