<svg id="Icon_awesome-twitter" data-name="Icon awesome-twitter" xmlns="http://www.w3.org/2000/svg" width="42.672" height="34.657" viewBox="0 0 42.672 34.657">
  <path id="Icon_awesome-twitter-2" data-name="Icon awesome-twitter" d="M38.286,12.018c.027.379.027.758.027,1.137,0,11.561-8.8,24.883-24.883,24.883A24.714,24.714,0,0,1,0,34.112a18.091,18.091,0,0,0,2.112.108,17.515,17.515,0,0,0,10.857-3.736,8.761,8.761,0,0,1-8.177-6.065,11.029,11.029,0,0,0,1.652.135,9.25,9.25,0,0,0,2.3-.3,8.747,8.747,0,0,1-7.013-8.583v-.108a8.808,8.808,0,0,0,3.953,1.11,8.759,8.759,0,0,1-2.708-11.7A24.859,24.859,0,0,0,21.011,14.13a9.873,9.873,0,0,1-.217-2A8.754,8.754,0,0,1,35.93,6.143,17.218,17.218,0,0,0,41.48,4.031a8.722,8.722,0,0,1-3.845,4.82A17.532,17.532,0,0,0,42.672,7.5a18.8,18.8,0,0,1-4.386,4.522Z" transform="translate(0 -3.381)" fill="#fff"/>
</svg>
