<svg id="Icon_awesome-twitter" data-name="Icon awesome-twitter" xmlns="http://www.w3.org/2000/svg" width="54.182" height="44.005" viewBox="0 0 54.182 44.005">
  <path id="Icon_awesome-twitter-2" data-name="Icon awesome-twitter" d="M48.612,14.348c.034.481.034.963.034,1.444,0,14.68-11.173,31.595-31.595,31.595A31.38,31.38,0,0,1,0,42.4a22.97,22.97,0,0,0,2.682.137,22.239,22.239,0,0,0,13.786-4.744,11.124,11.124,0,0,1-10.383-7.7,14,14,0,0,0,2.1.172,11.745,11.745,0,0,0,2.922-.378,11.106,11.106,0,0,1-8.9-10.9v-.137A11.183,11.183,0,0,0,7.22,20.261,11.121,11.121,0,0,1,3.782,5.409a31.564,31.564,0,0,0,22.9,11.62,12.536,12.536,0,0,1-.275-2.544,11.115,11.115,0,0,1,19.218-7.6,21.863,21.863,0,0,0,7.048-2.682,11.075,11.075,0,0,1-4.882,6.119,22.261,22.261,0,0,0,6.395-1.719,23.87,23.87,0,0,1-5.569,5.741Z" transform="translate(0 -3.381)" fill="#e3602f"/>
</svg>
