<svg id="Icon_awesome-youtube" data-name="Icon awesome-youtube" xmlns="http://www.w3.org/2000/svg" width="63.073" height="44.348" viewBox="0 0 63.073 44.348">
  <path id="Icon_awesome-youtube-2" data-name="Icon awesome-youtube" d="M62.805,11.439a7.925,7.925,0,0,0-5.576-5.612C52.31,4.5,32.586,4.5,32.586,4.5S12.863,4.5,7.944,5.827a7.925,7.925,0,0,0-5.576,5.612C1.05,16.39,1.05,26.719,1.05,26.719S1.05,37.048,2.368,42a7.807,7.807,0,0,0,5.576,5.523c4.919,1.327,24.642,1.327,24.642,1.327s19.723,0,24.642-1.327A7.807,7.807,0,0,0,62.805,42c1.318-4.951,1.318-15.28,1.318-15.28s0-10.329-1.318-15.28ZM26.136,36.1V17.341l16.485,9.378L26.136,36.1Z" transform="translate(-1.05 -4.5)" fill="#e3602f"/>
</svg>
