<svg id="Icon_awesome-youtube" data-name="Icon awesome-youtube" xmlns="http://www.w3.org/2000/svg" width="49.674" height="34.927" viewBox="0 0 49.674 34.927">
  <path id="Icon_awesome-youtube-2" data-name="Icon awesome-youtube" d="M49.686,9.965a6.242,6.242,0,0,0-4.392-4.42C41.421,4.5,25.887,4.5,25.887,4.5S10.354,4.5,6.48,5.545a6.242,6.242,0,0,0-4.392,4.42C1.05,13.864,1.05,22,1.05,22s0,8.135,1.038,12.034a6.149,6.149,0,0,0,4.392,4.35c3.874,1.045,19.407,1.045,19.407,1.045s15.534,0,19.407-1.045a6.149,6.149,0,0,0,4.392-4.35C50.724,30.134,50.724,22,50.724,22s0-8.135-1.038-12.034Zm-28.88,19.42V14.613L33.79,22,20.807,29.385Z" transform="translate(-1.05 -4.5)" fill="#fff"/>
</svg>
